<?xml version="1.0" encoding="utf-8"?>
<!-- Generator: Adobe Illustrator 19.0.0, SVG Export Plug-In . SVG Version: 6.00 Build 0)  -->
<svg version="1.1" id="Layer_1" xmlns="http://www.w3.org/2000/svg" xmlns:xlink="http://www.w3.org/1999/xlink" x="0px" y="0px"
	 viewBox="0 0 433 183" style="enable-background:new 0 0 433 183;" xml:space="preserve">
<path id="XMLID_30_" d="M0,91.5V183h91.5C41,183,0,142,0,91.5z"/>
<path id="XMLID_31_" d="M341.5,183H433V91.5C433,142,392,183,341.5,183z"/>
<path id="XMLID_32_" d="M91.5,0H0v91.5C0,41,41,0,91.5,0z"/>
<path id="XMLID_33_" d="M341.5,0C392,0,433,41,433,91.5V0H341.5z"/>
<path id="XMLID_34_" d="M329.2,22H103.9c-45.5,0-82.5,31.5-82.5,70.5c0,39,36.9,70.5,82.5,70.5h225.3c45.5,0,82.5-31.5,82.5-70.5
	C411.7,53.5,374.7,22,329.2,22z"/>
</svg>
