<?xml version="1.0" encoding="utf-8"?>
<!-- Generator: Adobe Illustrator 19.0.0, SVG Export Plug-In . SVG Version: 6.00 Build 0)  -->
<svg version="1.1" id="Layer_1" xmlns="http://www.w3.org/2000/svg" xmlns:xlink="http://www.w3.org/1999/xlink" x="0px" y="0px"
	 viewBox="0 0 433 183" xml:space="preserve">
<path id="XMLID_6_" d="M433,91.5C433,41,392,0,341.5,0h-250C41,0,0,41,0,91.5l0,0C0,142,41,183,91.5,183h250
	C392,183,433,142,433,91.5L433,91.5zM329.2,163H103.9c-45.5,0-82.5-31.5-82.5-70.5c0-39,36.9-70.5,82.5-70.5h225.3
	c45.5,0,82.5,31.5,82.5,70.5C411.7,131.5,374.7,163,329.2,163z"/>
</svg>
